<svg width="30" height="30" viewBox="0 0 30 30" fill="none" xmlns="http://www.w3.org/2000/svg">
<path d="M21.7362 25.586C22.0816 25.5853 22.421 25.4948 22.7208 25.3232C23.396 24.9406 23.8158 24.1978 23.8158 23.3915V7.07398C23.8158 6.26542 23.396 5.52494 22.7208 5.14232C22.4138 4.96589 22.0651 4.87516 21.711 4.87961C21.357 4.88407 21.0106 4.98354 20.7081 5.16764L6.76228 13.5155C6.47163 13.6977 6.23203 13.9508 6.06595 14.251C5.89987 14.5511 5.81274 14.8886 5.81274 15.2316C5.81274 15.5747 5.89987 15.9121 6.06595 16.2123C6.23203 16.5125 6.47163 16.7655 6.76228 16.9478L20.7104 25.2979C21.0199 25.485 21.3745 25.5846 21.7362 25.586V25.586Z" fill="#E1E1E6"/>
</svg>

