<svg width="30" height="30" viewBox="0 0 30 30" fill="none" xmlns="http://www.w3.org/2000/svg">
<path d="M7.76415 25.586C7.41868 25.5853 7.07933 25.4948 6.77947 25.3232C6.10426 24.9406 5.68451 24.1978 5.68451 23.3915V7.07398C5.68451 6.26542 6.10426 5.52494 6.77947 5.14232C7.08647 4.96589 7.43522 4.87516 7.78928 4.87961C8.14333 4.88407 8.48969 4.98354 8.79215 5.16764L22.738 13.5155C23.0287 13.6977 23.2683 13.9508 23.4344 14.251C23.6004 14.5511 23.6876 14.8886 23.6876 15.2316C23.6876 15.5747 23.6004 15.9121 23.4344 16.2123C23.2683 16.5125 23.0287 16.7655 22.738 16.9478L8.7899 25.2979C8.48037 25.485 8.12584 25.5846 7.76415 25.586V25.586Z" fill="#E1E1E6"/>
</svg>
